<?xml version="1.0" encoding="UTF-8" standalone="no"?>
<svg width="174px" height="62px" viewBox="0 0 174 62" version="1.1" xmlns="http://www.w3.org/2000/svg" xmlns:xlink="http://www.w3.org/1999/xlink" xmlns:sketch="http://www.bohemiancoding.com/sketch/ns">
    <!-- Generator: Sketch 3.2.2 (9983) - http://www.bohemiancoding.com/sketch -->
    <title>Appremium Logo</title>
    <desc>Created with Sketch.</desc>
    <defs></defs>
    <g id="Page-1" stroke="none" stroke-width="1" fill="none" fill-rule="evenodd" sketch:type="MSPage">
        <g id="Appremium-Logo" sketch:type="MSArtboardGroup">
            <g id="V.S-Logo" sketch:type="MSLayerGroup">
                <rect id="Rectangle-15" stroke="#4A4A4A" sketch:type="MSShapeGroup" x="0" y="0" width="62" height="62"></rect>
                <rect id="Rectangle-15" stroke="#4A4A4A" sketch:type="MSShapeGroup" x="0" y="0" width="174" height="62"></rect>
                <path d="M42.3642578,42.7294922 L27.1506348,42.7294922 L26.1166992,45.2700195 C24.5805587,48.9528179 23.8125,51.3554631 23.8125,52.4780273 C23.8125,53.679368 24.2211466,54.5902069 25.0384521,55.2105713 C25.8557577,55.8309357 26.9044532,56.1411133 28.1845703,56.1411133 L28.1845703,57.5 L16.279541,57.5 L16.279541,56.1411133 C18.0520108,55.8653958 19.3714963,55.2401172 20.2380371,54.2652588 C21.1045779,53.2904004 22.14835,51.2373203 23.3693848,48.105957 C23.4678553,47.8105454 23.9405068,46.6683042 24.7873535,44.6791992 L36.4265137,16.8811035 L37.5786133,16.8811035 L50.9606934,48.6967773 L52.7922363,52.8916016 C53.2058126,53.8369188 53.7621628,54.5803602 54.4613037,55.1219482 C55.1604446,55.6635362 56.2091401,56.0032545 57.6074219,56.1411133 L57.6074219,57.5 L41.8620605,57.5 L41.8620605,56.1411133 C43.7920832,56.1411133 45.0967984,55.9983331 45.7762451,55.7127686 C46.4556919,55.427204 46.7954102,54.8610068 46.7954102,54.0141602 C46.7954102,53.5808898 46.3424524,52.290945 45.4365234,50.1442871 L42.3642578,42.7294922 Z M41.8620605,41.4001465 L34.7722168,24.3254395 L27.7119141,41.4001465 L41.8620605,41.4001465 Z" id="A" fill="#4A4A4A" sketch:type="MSShapeGroup"></path>
                <path d="M84.15625,32.59375 L80.1328125,32.59375 L79.859375,33.265625 C79.453123,34.2395882 79.25,34.8749985 79.25,35.171875 C79.25,35.4895849 79.3580718,35.7304679 79.5742188,35.8945312 C79.7903657,36.0585946 80.0677066,36.140625 80.40625,36.140625 L80.40625,36.5 L77.2578125,36.5 L77.2578125,36.140625 C77.7265648,36.067708 78.0755197,35.902345 78.3046875,35.6445312 C78.5338553,35.3867175 78.8098942,34.8437541 79.1328125,34.015625 C79.1588543,33.9374996 79.283853,33.6354193 79.5078125,33.109375 L82.5859375,25.7578125 L82.890625,25.7578125 L86.4296875,34.171875 L86.9140625,35.28125 C87.023438,35.5312512 87.170572,35.7278639 87.3554688,35.8710938 C87.5403655,36.0143236 87.8177065,36.1041665 88.1875,36.140625 L88.1875,36.5 L84.0234375,36.5 L84.0234375,36.140625 C84.5338567,36.140625 84.8789054,36.102865 85.0585938,36.0273438 C85.2382821,35.9518225 85.328125,35.8020845 85.328125,35.578125 C85.328125,35.4635411 85.2083345,35.1223987 84.96875,34.5546875 L84.15625,32.59375 Z M84.0234375,32.2421875 L82.1484375,27.7265625 L80.28125,32.2421875 L84.0234375,32.2421875 Z M90.8515625,29.84375 L91.0625,29.84375 C91.1510421,30.1354181 91.1953125,30.4869771 91.1953125,30.8984375 C91.5286475,30.5442691 91.8867168,30.2799488 92.2695312,30.1054688 C92.6523457,29.9309887 93.0572895,29.84375 93.484375,29.84375 C94.3697961,29.84375 95.1067679,30.1549448 95.6953125,30.7773438 C96.2838571,31.3997427 96.578125,32.2213491 96.578125,33.2421875 C96.578125,34.2421925 96.282555,35.0781216 95.6914062,35.75 C95.1002575,36.4218784 94.3229215,36.7578125 93.359375,36.7578125 C92.9635397,36.7578125 92.5846372,36.6783862 92.2226562,36.5195312 C91.8606753,36.3606763 91.5182308,36.1250016 91.1953125,35.8125 L91.1953125,38.2421875 C91.1953125,38.9817745 91.2096353,39.4322909 91.2382812,39.59375 C91.2669272,39.7552091 91.3489577,39.8763017 91.484375,39.9570312 C91.6197923,40.0377608 91.872394,40.078125 92.2421875,40.078125 L92.2421875,40.4375 L88.8984375,40.4375 L88.8984375,40.078125 L89.1328125,40.078125 C89.502606,40.078125 89.743489,40.0247401 89.8554688,39.9179688 C89.9674485,39.8111974 90.032552,39.6835945 90.0507812,39.5351562 C90.0690105,39.386718 90.078125,38.9557327 90.078125,38.2421875 L90.078125,32.4296875 C90.078125,31.7473924 90.0690105,31.3177092 90.0507812,31.140625 C90.032552,30.9635408 89.958334,30.8281255 89.828125,30.734375 C89.697916,30.6406245 89.4661475,30.59375 89.1328125,30.59375 L88.8984375,30.59375 L88.8984375,30.234375 C89.4140651,30.1822914 90.0651002,30.0520844 90.8515625,29.84375 L90.8515625,29.84375 Z M91.1953125,35.296875 C91.4765639,35.6406267 91.774738,35.8997387 92.0898438,36.0742188 C92.4049495,36.2486988 92.7369774,36.3359375 93.0859375,36.3359375 C93.6744821,36.3359375 94.1874978,36.0833359 94.625,35.578125 C95.0625022,35.0729141 95.28125,34.2682347 95.28125,33.1640625 C95.28125,32.2057244 95.0703146,31.4895857 94.6484375,31.015625 C94.2265604,30.5416643 93.7239613,30.3046875 93.140625,30.3046875 C92.7812482,30.3046875 92.4401058,30.3958324 92.1171875,30.578125 C91.7942692,30.7604176 91.4869806,31.0364565 91.1953125,31.40625 L91.1953125,35.296875 Z M99.6875,29.84375 L99.8984375,29.84375 C99.9869796,30.1354181 100.03125,30.4869771 100.03125,30.8984375 C100.364585,30.5442691 100.722654,30.2799488 101.105469,30.1054688 C101.488283,29.9309887 101.893227,29.84375 102.320312,29.84375 C103.205734,29.84375 103.942705,30.1549448 104.53125,30.7773438 C105.119795,31.3997427 105.414062,32.2213491 105.414062,33.2421875 C105.414062,34.2421925 105.118493,35.0781216 104.527344,35.75 C103.936195,36.4218784 103.158859,36.7578125 102.195312,36.7578125 C101.799477,36.7578125 101.420575,36.6783862 101.058594,36.5195312 C100.696613,36.3606763 100.354168,36.1250016 100.03125,35.8125 L100.03125,38.2421875 C100.03125,38.9817745 100.045573,39.4322909 100.074219,39.59375 C100.102865,39.7552091 100.184895,39.8763017 100.320312,39.9570312 C100.45573,40.0377608 100.708331,40.078125 101.078125,40.078125 L101.078125,40.4375 L97.734375,40.4375 L97.734375,40.078125 L97.96875,40.078125 C98.3385435,40.078125 98.5794265,40.0247401 98.6914062,39.9179688 C98.803386,39.8111974 98.8684895,39.6835945 98.8867188,39.5351562 C98.904948,39.386718 98.9140625,38.9557327 98.9140625,38.2421875 L98.9140625,32.4296875 C98.9140625,31.7473924 98.904948,31.3177092 98.8867188,31.140625 C98.8684895,30.9635408 98.7942715,30.8281255 98.6640625,30.734375 C98.5338535,30.6406245 98.302085,30.59375 97.96875,30.59375 L97.734375,30.59375 L97.734375,30.234375 C98.2500026,30.1822914 98.9010377,30.0520844 99.6875,29.84375 L99.6875,29.84375 Z M100.03125,35.296875 C100.312501,35.6406267 100.610676,35.8997387 100.925781,36.0742188 C101.240887,36.2486988 101.572915,36.3359375 101.921875,36.3359375 C102.51042,36.3359375 103.023435,36.0833359 103.460938,35.578125 C103.89844,35.0729141 104.117188,34.2682347 104.117188,33.1640625 C104.117188,32.2057244 103.906252,31.4895857 103.484375,31.015625 C103.062498,30.5416643 102.559899,30.3046875 101.976562,30.3046875 C101.617186,30.3046875 101.276043,30.3958324 100.953125,30.578125 C100.630207,30.7604176 100.322918,31.0364565 100.03125,31.40625 L100.03125,35.296875 Z M109.210938,31.4765625 C109.388022,31.0130185 109.675779,30.6250016 110.074219,30.3125 C110.472658,29.9999984 110.861977,29.84375 111.242188,29.84375 C111.585939,29.84375 111.85677,29.9505198 112.054688,30.1640625 C112.252605,30.3776052 112.351562,30.596353 112.351562,30.8203125 C112.351562,30.9713549 112.300782,31.101562 112.199219,31.2109375 C112.097656,31.320313 111.973959,31.375 111.828125,31.375 C111.567707,31.375 111.369792,31.1822936 111.234375,30.796875 C111.140625,30.536457 111.000001,30.40625 110.8125,30.40625 C110.588541,30.40625 110.320314,30.5585922 110.007812,30.8632812 C109.695311,31.1679703 109.494792,31.4843734 109.40625,31.8125 C109.317708,32.1406266 109.273438,32.591143 109.273438,33.1640625 L109.273438,34.3046875 C109.273438,34.9869826 109.282552,35.4166658 109.300781,35.59375 C109.319011,35.7708342 109.393229,35.9062495 109.523438,36 C109.653646,36.0937505 109.885415,36.140625 110.21875,36.140625 L110.4375,36.140625 L110.4375,36.5 L107.039062,36.5 L107.039062,36.140625 L107.203125,36.140625 C107.515627,36.140625 107.738281,36.0976567 107.871094,36.0117188 C108.003907,35.9257808 108.083333,35.8046883 108.109375,35.6484375 C108.135417,35.4921867 108.148438,35.0442745 108.148438,34.3046875 L108.148438,32.5 C108.148438,31.8124966 108.139323,31.3815113 108.121094,31.2070312 C108.102864,31.0325512 108.028646,30.8971359 107.898438,30.8007812 C107.768229,30.7044266 107.53646,30.65625 107.203125,30.65625 L107.039062,30.65625 L107.039062,30.3046875 C107.528648,30.2473955 108.169267,30.0937513 108.960938,29.84375 C109.11198,30.2552104 109.195312,30.7994758 109.210938,31.4765625 L109.210938,31.4765625 Z M119.117188,32.265625 L114.65625,32.265625 C114.635417,32.5729182 114.625,32.8020826 114.625,32.953125 C114.625,34.0781306 114.800779,34.9231743 115.152344,35.4882812 C115.503908,36.0533882 116.028642,36.3359375 116.726562,36.3359375 C117.674484,36.3359375 118.346352,35.9114626 118.742188,35.0625 L119.117188,35.0625 C118.95052,35.5937527 118.619794,36.0091131 118.125,36.3085938 C117.630206,36.6080744 117.091149,36.7578125 116.507812,36.7578125 C115.966143,36.7578125 115.454429,36.6210951 114.972656,36.3476562 C114.490883,36.0742174 114.096356,35.6875025 113.789062,35.1875 C113.481769,34.6874975 113.328125,34.0807327 113.328125,33.3671875 C113.328125,32.3567658 113.624997,31.5169304 114.21875,30.8476562 C114.812503,30.1783821 115.554683,29.84375 116.445312,29.84375 C117.283858,29.84375 117.932289,30.0989558 118.390625,30.609375 C118.848961,31.1197942 119.091146,31.671872 119.117188,32.265625 L119.117188,32.265625 Z M117.75,31.953125 C117.765625,31.8333327 117.773438,31.726563 117.773438,31.6328125 C117.773438,31.1744769 117.639324,30.8190117 117.371094,30.5664062 C117.102863,30.3138008 116.773439,30.1875 116.382812,30.1875 C115.434891,30.1875 114.869793,30.7760358 114.6875,31.953125 L117.75,31.953125 Z M122.46875,29.84375 L122.546875,29.84375 C122.697917,30.1927101 122.773438,30.6406223 122.773438,31.1875 C123.122398,30.7395811 123.498696,30.403647 123.902344,30.1796875 C124.305992,29.955728 124.739581,29.84375 125.203125,29.84375 C125.729169,29.84375 126.156248,29.9635405 126.484375,30.203125 C126.812502,30.4427095 127.041666,30.8020809 127.171875,31.28125 C127.56771,30.8020809 127.973956,30.4427095 128.390625,30.203125 C128.807294,29.9635405 129.231769,29.84375 129.664062,29.84375 C130.158857,29.84375 130.578123,29.9583322 130.921875,30.1875 C131.265627,30.4166678 131.473958,30.6770819 131.546875,30.96875 C131.619792,31.2604181 131.65625,31.7317676 131.65625,32.3828125 L131.65625,34.3046875 C131.65625,35.0494829 131.670573,35.5026034 131.699219,35.6640625 C131.727865,35.8255216 131.811197,35.9453121 131.949219,36.0234375 C132.08724,36.1015629 132.343748,36.140625 132.71875,36.140625 L132.71875,36.5 L129.523438,36.5 L129.523438,36.140625 C129.861981,36.140625 130.10026,36.102865 130.238281,36.0273438 C130.376303,35.9518225 130.460937,35.8372404 130.492188,35.6835938 C130.523438,35.5299471 130.539062,35.0703163 130.539062,34.3046875 L130.539062,32.171875 C130.539062,31.7395812 130.514323,31.4140636 130.464844,31.1953125 C130.415364,30.9765614 130.286459,30.7890633 130.078125,30.6328125 C129.869791,30.4765617 129.59896,30.3984375 129.265625,30.3984375 C128.927082,30.3984375 128.587241,30.5130197 128.246094,30.7421875 C127.904946,30.9713553 127.562502,31.317706 127.21875,31.78125 L127.21875,34.3046875 C127.21875,34.9869826 127.227864,35.4153637 127.246094,35.5898438 C127.264323,35.7643238 127.337239,35.8997391 127.464844,35.9960938 C127.592449,36.0924484 127.820311,36.140625 128.148438,36.140625 L128.148438,36.5 L125.054688,36.5 L125.054688,36.140625 C125.403648,36.140625 125.647135,36.104167 125.785156,36.03125 C125.923178,35.958333 126.009114,35.8463549 126.042969,35.6953125 C126.076823,35.5442701 126.09375,35.080733 126.09375,34.3046875 L126.09375,32.53125 C126.09375,31.9687472 126.071615,31.5611992 126.027344,31.3085938 C125.983073,31.0559883 125.848959,30.8398446 125.625,30.6601562 C125.401041,30.4804679 125.122398,30.390625 124.789062,30.390625 C124.466144,30.390625 124.13672,30.4947906 123.800781,30.703125 C123.464842,30.9114594 123.122398,31.2239563 122.773438,31.640625 L122.773438,34.3046875 C122.773438,35.007816 122.783854,35.4453116 122.804688,35.6171875 C122.825521,35.7890634 122.903645,35.9192704 123.039062,36.0078125 C123.17448,36.0963546 123.416665,36.140625 123.765625,36.140625 L123.765625,36.5 L120.632812,36.5 L120.632812,36.140625 C120.976564,36.140625 121.217447,36.102865 121.355469,36.0273438 C121.49349,35.9518225 121.578125,35.8385424 121.609375,35.6875 C121.640625,35.5364576 121.65625,35.0755247 121.65625,34.3046875 L121.65625,32.390625 C121.65625,31.6614547 121.644531,31.2148446 121.621094,31.0507812 C121.597656,30.8867179 121.516928,30.7630213 121.378906,30.6796875 C121.240885,30.5963537 120.992189,30.5546875 120.632812,30.5546875 L120.632812,30.1953125 C121.3724,30.1223955 121.984373,30.0052091 122.46875,29.84375 L122.46875,29.84375 Z M134.632812,26.578125 C134.632812,26.3541655 134.712239,26.1614591 134.871094,26 C135.029949,25.8385409 135.221353,25.7578125 135.445312,25.7578125 C135.669272,25.7578125 135.859374,25.8385409 136.015625,26 C136.171876,26.1614591 136.25,26.3541655 136.25,26.578125 C136.25,26.8072928 136.171876,27.0026034 136.015625,27.1640625 C135.859374,27.3255216 135.669272,27.40625 135.445312,27.40625 C135.221353,27.40625 135.029949,27.3255216 134.871094,27.1640625 C134.712239,27.0026034 134.632812,26.8072928 134.632812,26.578125 L134.632812,26.578125 Z M136.140625,29.84375 L136.140625,34.3046875 C136.140625,34.9869826 136.151042,35.4166658 136.171875,35.59375 C136.192708,35.7708342 136.268229,35.9062495 136.398438,36 C136.528646,36.0937505 136.760415,36.140625 137.09375,36.140625 L137.257812,36.140625 L137.257812,36.5 L133.8125,36.5 L133.8125,36.140625 L134.078125,36.140625 C134.447919,36.140625 134.688802,36.0872401 134.800781,35.9804688 C134.912761,35.8736974 134.977864,35.7460945 134.996094,35.5976562 C135.014323,35.449218 135.023438,35.0182327 135.023438,34.3046875 L135.023438,32.3671875 C135.023438,31.6171837 134.988282,31.158855 134.917969,30.9921875 C134.847656,30.82552 134.753907,30.7213544 134.636719,30.6796875 C134.519531,30.6380206 134.315106,30.6171875 134.023438,30.6171875 L133.8125,30.6171875 L133.8125,30.2578125 C134.739588,30.164062 135.458331,30.0260426 135.96875,29.84375 L136.140625,29.84375 Z M145.015625,30.1015625 L145.015625,34.296875 C145.015625,34.9947952 145.026042,35.4322908 145.046875,35.609375 C145.067708,35.7864592 145.144531,35.9192704 145.277344,36.0078125 C145.410157,36.0963546 145.648436,36.140625 145.992188,36.140625 L145.992188,36.5 C145.200517,36.5104167 144.622398,36.5937492 144.257812,36.75 L144.164062,36.75 C143.997395,36.4635402 143.908854,35.9687535 143.898438,35.265625 C143.580728,35.7604191 143.21745,36.1328113 142.808594,36.3828125 C142.399738,36.6328137 141.947919,36.7578125 141.453125,36.7578125 C141.02604,36.7578125 140.648439,36.6601572 140.320312,36.4648438 C139.992186,36.2695303 139.766928,36.0312514 139.644531,35.75 C139.522135,35.4687486 139.460938,35.0442737 139.460938,34.4765625 L139.460938,32.296875 C139.460938,31.557288 139.447917,31.1054696 139.421875,30.9414062 C139.395833,30.7773429 139.313803,30.6562504 139.175781,30.578125 C139.03776,30.4999996 138.783856,30.4609375 138.414062,30.4609375 L138.414062,30.1015625 L140.585938,30.1015625 L140.585938,34.5390625 C140.585938,34.9765647 140.611979,35.2942698 140.664062,35.4921875 C140.716146,35.6901052 140.848957,35.8632805 141.0625,36.0117188 C141.276043,36.160157 141.523436,36.234375 141.804688,36.234375 C142.205731,36.234375 142.58854,36.1028659 142.953125,35.8398438 C143.31771,35.5768216 143.566406,35.2981786 143.699219,35.0039062 C143.832032,34.7096339 143.898438,34.2890652 143.898438,33.7421875 L143.898438,32.296875 C143.898438,31.5989548 143.890625,31.1744799 143.875,31.0234375 C143.859375,30.8723951 143.792969,30.740886 143.675781,30.6289062 C143.558593,30.5169265 143.315106,30.4609375 142.945312,30.4609375 L142.78125,30.4609375 L142.78125,30.1015625 L145.015625,30.1015625 Z M149.140625,29.84375 L149.21875,29.84375 C149.369792,30.1927101 149.445312,30.6406223 149.445312,31.1875 C149.794273,30.7395811 150.170571,30.403647 150.574219,30.1796875 C150.977867,29.955728 151.411456,29.84375 151.875,29.84375 C152.401044,29.84375 152.828123,29.9635405 153.15625,30.203125 C153.484377,30.4427095 153.713541,30.8020809 153.84375,31.28125 C154.239585,30.8020809 154.645831,30.4427095 155.0625,30.203125 C155.479169,29.9635405 155.903644,29.84375 156.335938,29.84375 C156.830732,29.84375 157.249998,29.9583322 157.59375,30.1875 C157.937502,30.4166678 158.145833,30.6770819 158.21875,30.96875 C158.291667,31.2604181 158.328125,31.7317676 158.328125,32.3828125 L158.328125,34.3046875 C158.328125,35.0494829 158.342448,35.5026034 158.371094,35.6640625 C158.39974,35.8255216 158.483072,35.9453121 158.621094,36.0234375 C158.759115,36.1015629 159.015623,36.140625 159.390625,36.140625 L159.390625,36.5 L156.195312,36.5 L156.195312,36.140625 C156.533856,36.140625 156.772135,36.102865 156.910156,36.0273438 C157.048178,35.9518225 157.132812,35.8372404 157.164062,35.6835938 C157.195313,35.5299471 157.210938,35.0703163 157.210938,34.3046875 L157.210938,32.171875 C157.210938,31.7395812 157.186198,31.4140636 157.136719,31.1953125 C157.087239,30.9765614 156.958334,30.7890633 156.75,30.6328125 C156.541666,30.4765617 156.270835,30.3984375 155.9375,30.3984375 C155.598957,30.3984375 155.259116,30.5130197 154.917969,30.7421875 C154.576821,30.9713553 154.234377,31.317706 153.890625,31.78125 L153.890625,34.3046875 C153.890625,34.9869826 153.899739,35.4153637 153.917969,35.5898438 C153.936198,35.7643238 154.009114,35.8997391 154.136719,35.9960938 C154.264324,36.0924484 154.492186,36.140625 154.820312,36.140625 L154.820312,36.5 L151.726562,36.5 L151.726562,36.140625 C152.075523,36.140625 152.31901,36.104167 152.457031,36.03125 C152.595053,35.958333 152.680989,35.8463549 152.714844,35.6953125 C152.748698,35.5442701 152.765625,35.080733 152.765625,34.3046875 L152.765625,32.53125 C152.765625,31.9687472 152.74349,31.5611992 152.699219,31.3085938 C152.654948,31.0559883 152.520834,30.8398446 152.296875,30.6601562 C152.072916,30.4804679 151.794273,30.390625 151.460938,30.390625 C151.138019,30.390625 150.808595,30.4947906 150.472656,30.703125 C150.136717,30.9114594 149.794273,31.2239563 149.445312,31.640625 L149.445312,34.3046875 C149.445312,35.007816 149.455729,35.4453116 149.476562,35.6171875 C149.497396,35.7890634 149.57552,35.9192704 149.710938,36.0078125 C149.846355,36.0963546 150.08854,36.140625 150.4375,36.140625 L150.4375,36.5 L147.304688,36.5 L147.304688,36.140625 C147.648439,36.140625 147.889322,36.102865 148.027344,36.0273438 C148.165365,35.9518225 148.25,35.8385424 148.28125,35.6875 C148.3125,35.5364576 148.328125,35.0755247 148.328125,34.3046875 L148.328125,32.390625 C148.328125,31.6614547 148.316406,31.2148446 148.292969,31.0507812 C148.269531,30.8867179 148.188803,30.7630213 148.050781,30.6796875 C147.91276,30.5963537 147.664064,30.5546875 147.304688,30.5546875 L147.304688,30.1953125 C148.044275,30.1223955 148.656248,30.0052091 149.140625,29.84375 L149.140625,29.84375 Z" id="Appremium" fill="#4A4A4A" sketch:type="MSShapeGroup"></path>
            </g>
        </g>
    </g>
</svg>